/* XPM */
static char *bitcoin64[] = {
/* columns rows colors chars-per-pixel */
"64 64 59 1 ",
"  c #394B65",
". c #394B66",
"X c #384B67",
"o c #394B67",
"O c #3A4B67",
"+ c #384C65",
"@ c #394C65",
"# c #3A4C65",
"$ c #3A4D65",
"% c #384C66",
"& c #394C66",
"* c #384D66",
"= c #394D66",
"- c #384C67",
"; c #394C67",
": c #3A4C66",
"> c #3A4D66",
", c #3A4C67",
"< c #354F6B",
"1 c #364E6A",
"2 c #364F6A",
"3 c #334F6D",
"4 c #2F5573",
"5 c #2F5574",
"6 c #2D5674",
"7 c #2D5676",
"8 c #2D5678",
"9 c #245D83",
"0 c #245E83",
"q c #1F6289",
"w c #156B96",
"e c #126D9A",
"r c #126E9B",
"t c #116D9C",
"y c #206186",
"u c #206188",
"i c #206289",
"p c #0B72A2",
"a c #0B73A2",
"s c #0B73A3",
"d c #0C72A0",
"f c #0D72A2",
"g c #0C73A3",
"h c #0C73A4",
"j c #0874A6",
"k c #0974A6",
"l c #0975A6",
"z c #0974A7",
"x c #0875A7",
"c c #0975A7",
"v c #0A74A6",
"b c #0A75A6",
"n c #0A75A7",
"m c #0976A6",
"M c #0876A7",
"N c #0976A7",
"B c #0A76A7",
"V c #0975A8",
"C c None",
/* pixels */
"CCCCCCCCCCCCCCCCCCCCCCCCCCCCCCCC%CCCCCCCCCCCCCCCCCCCCCCCCCCCCCCC",
"CCCCCCCCCCCCCCCCCCCCCCCCCCCCCC:%%:CCCCCCCCCCCCCCCCCCCCCCCCCCCCCC",
"CCCCCCCCCCCCCCCCCCCCCCCCCCCCC%%::%:CCCCCCCCCCCCCCCCCCCCCCCCCCCCC",
"CCCCCCCCCCCCCCCCCCCCCCCCCCCC:%:%%:%:CCCCCCCCCCCCCCCCCCCCCCCCCCCC",
"CCCCCCCCCCCCCCCCCCCCCCCCCCC:%:%:%::%%CCCCCCCCCCCCCCCCCCCCCCCCCCC",
"CCCCCCCCCCCCCCCCCCCCCCCCCC%::%:CC:%::%CCCCCCCCCCCCCCCCCCCCCCCCCC",
"CCCCCCCCCCCCCCCCCCCCCCCCC%:%%%CCCCC%%::CCCCCCCCCCCCCCCCCCCCCCCCC",
"CCCCCCCCCCCCCCCCCCCCCCCC%%%::CCCCCC::%:%CCCCCCCCCCCCCCCCCCCCCCCC",
"CCCCCCCCCCCCCCCCCCCCCCCC%%..CCCCCCCC.%%%CCCCCCCCCCCCCCCCCCCCCCCC",
"CCCCCCCCCCCCCCCCCCCCCCC%%%%ennnnBnnnVCCC%CCCCCCCCCCCCCCCCCCCCCCC",
"CCCCCCCCCCCCCCCCCCCCCCC%%%5nnnnnnMnnjVnMCCCCCCCCCCCCCCCCCCCCCCCC",
"CCCCCCCCCCCCCCCCCCCCCn2%%:jMnMnnMnnnMnMnnVVCCCCCCCCCCCCCCCCCCCCC",
"CCCCCCCCCCCCCCCCCCCCVf%::4BnnBCCCCnnnnnnnnnxCCCCCCCCCCCCCCCCCCCC",
"CCCCCCCCCCCCCCCCCCnnny:%%CCCCCCCCCCCCCCnnnMnnVCCCCCCCCCCCCCCCCCC",
"CCCCCCCCCCCCCCCCCnnnn2%::CCCCCCCCCCCCCCCCVnnnMnCCCCCCCCCCCCCCCCC",
"CCCCCCCCCCCCCCCCnnnnV%%%.CCCCCCCCCCCCCCCCCCnnnMnCCCCCCCCCCCCCCCC",
"CCCCCCCCCCCCCCCnnnnnC%%%CCCCCCCCCCCCCCCCCCCCnnnnnCCCCCCCCCCCCCCC",
"CCCCCCCCCCCCCCVVnMnCC%%%CCCCCCCCCCCCCCCCCCCCCnnnnnCCCCCCCCCCCCCC",
"CCCCCCCCCCCCCnMjMVCCC%:%CCCCCCCCCCCCCCCCCCCCCCBnMnnCCCCCCCCCCCCC",
"CCCCCCCCCCCCnnnMjCCCC:%:CCCCCCCCCCCCCCCCCCCCCCCBnnnCCCCCCCCCCCCC",
"CCCCCCCCCCCCMnnnCCCCCCCCCCCCCCCCCCCCCCCCCCCC:%CCsnnVCCCCCCCCCCCC",
"CCCCCCCCCCCVnMnCCCCCCCCCCCCCCCCCCCCCC,%%CCCC%::%%%5wCCCCCCCCCCCC",
"CCCCCCCCCCCMMjnCCCCCCCCCCCCCCCCCCC%%%:%%CCCC:%%%%%%:%CCCCCCCCCCC",
"CCCCCCCCC.MnnVCCCCCCCCCCCCCCCCCC%:%:%%%CCCCC%:%%%%%%%:%CCCCCCCCC",
"CCCCCCC%:CBBnnCCCCCCC:%CCCCCCCC:%::%:%:CCCCCCCCCC%%.:%%%:CCCCCCC",
"CCCCCC%:%CnnnCCCCCCCC::%:CCCC%:%:%%%CCCCCCCCCCCCCCCq.:%%:%CCCCCC",
"CCCCC::%.MnnnCCCCCCCC::%%CCC%:%:%:CCCCCCCCCCCCCCCCCnni.%%:%CCCCC",
"CCCC%:%:%nnnnCCCCCCCCC%::CC.:%:%CC%:%CCCCCCCCCCCCCCnnns%:%:%:CCC",
"CCC:%:%:CnnMnCCCCCCCCC:%%:C:%::CC%%::%CCCCCCCCCCCCCnnMnC%::%%CCC",
"CC%::%CCCnMnCCCCCCCCCCC%%:C%:%CCCC:%%::CCCCCCCCCCCCnnnMCCC%::%CC",
"C.%%%CCCCnnMCCCCCCCCCCC::%:C%CCCCCC::%%CCCCCCCCCCCCCnnBCCCC%:%:C",
"%%%%:CCCCnMnCCCCCCCCCCCC%:%:CCCCCCCC%:%:CCCCCCCCCCCCnnnCCCC:%:%:",
"C:%::CCCCnMnCCCCCCCCCCCC%:%:CCCCCCCCC%:%%CCCCCCCCCCCMnMCCCC%:%:C",
"C%:%%%CCCMnMCCCCCCCCCCCCC%:%:CCCCCC%C:%::CCCCCCCCCCCnnnCCC:%%:%C",
"CC%::%%CCnnnCCCCCCCCCCCCCC%:%:CCCC%:%C:%%:CCCCCCCCCCnnVCC%%:%:CC",
"CCC:%::%CnnnnCCCCCCCCCCCCC:%:%%CC::%:C%::%CCCCCCCCCBnnnC.%%%:CCC",
"CCCC%:%:%tnnnCCCCCCCCCCCCCC:%,C::%:%>CC%:%CCCCCCCCCnnnn%:%:%CCCC",
"CCCCC::%%%5snCCCCCCCCCCCCCCCCC%%%:%%CCC:%::CCCCCCCCnnMC%%:%CCCCC",
"CCCCCC%::%%%5CCCCCCCCCCCCCCC#.:%:%CCCCC>%%%CCCCCCCCnMnC%:%CCCCCC",
"CCCCCCC:%%%%:%%%CCCCCCCCC:%:%:%::CCCCCCCC:%CCCCCCCnnnMC%%CCCCCCC",
"CCCCCCCCC%%%%%%%%::%CCCCC%:%:%%CCCCCCCCCCCCCCCCCCCMnnB:CCCCCCCCC",
"CCCCCCCCCCC2%:%%:%%:CCCC%%%::CCCCCCCCCCCCCCCCCCCCMnMnCCCCCCCCCCC",
"CCCCCCCCCCCnfi<%%:%:CCCC%%.CCCCCCCCCCCCCCCCCCCCCCnnnnCCCCCCCCCCC",
"CCCCCCCCCCCCnnnnCCCCCCCCCCCCCCCCCCCCCCCCCCCCCCCCnnnnCCCCCCCCCCCC",
"CCCCCCCCCCCCMnMnnCCCCCCCCCCCCCCCCCCCCCCC%>:CCCCnMnMnCCCCCCCCCCCC",
"CCCCCCCCCCCCCVjMnnCCCCCCCCCCCCCCCCCCCCCC:%%%CCnMnMnCCCCCCCCCCCCC",
"CCCCCCCCCCCCCCnnnnjCCCCCCCCCCCCCCCCCCCCC%:%CCnnnnnCCCCCCCCCCCCCC",
"CCCCCCCCCCCCCCCMnnnBCCCCCCCCCCCCCCCCCCCC:%:CBnnnnCCCCCCCCCCCCCCC",
"CCCCCCCCCCCCCCCCnnnMnCCCCCCCCCCCCCCCCCCC%%%snMnnCCCCCCCCCCCCCCCC",
"CCCCCCCCCCCCCCCCCnMnnnnCCCCCCCCCCCCCCCC:%%%nMnVCCCCCCCCCCCCCCCCC",
"CCCCCCCCCCCCCCCCCCnnMnMnnCCCCCCCCCCCCCC%:%8VnMCCCCCCCCCCCCCCCCCC",
"CCCCCCCCCCCCCCCCCCCnnMjVnnnnnCCCCCCnnn9:%:eVjCCCCCCCCCCCCCCCCCCC",
"CCCCCCCCCCCCCCCCCCCCCnnVMnMnMnMnnnMnnn%%::nCCCCCCCCCCCCCCCCCCCCC",
"CCCCCCCCCCCCCCCCCCCCCCCnnMnnjMnnnnnMn9%%%CCCCCCCCCCCCCCCCCCCCCCC",
"CCCCCCCCCCCCCCCCCCCCCCC%3CnnVnnnnnMnf%%:%CCCCCCCCCCCCCCCCCCCCCCC",
"CCCCCCCCCCCCCCCCCCCCCCCC%.%%CCCCCCCC#%:%CCCCCCCCCCCCCCCCCCCCCCCC",
"CCCCCCCCCCCCCCCCCCCCCCCC,:%:%CCCCCC:%:%:CCCCCCCCCCCCCCCCCCCCCCCC",
"CCCCCCCCCCCCCCCCCCCCCCCCC%:%%,CCCCC::%%CCCCCCCCCCCCCCCCCCCCCCCCC",
"CCCCCCCCCCCCCCCCCCCCCCCCCC%:%%:CC%%%%:CCCCCCCCCCCCCCCCCCCCCCCCCC",
"CCCCCCCCCCCCCCCCCCCCCCCCCCC:%:%:%%%::CCCCCCCCCCCCCCCCCCCCCCCCCCC",
"CCCCCCCCCCCCCCCCCCCCCCCCCCCC:%:%:%:%CCCCCCCCCCCCCCCCCCCCCCCCCCCC",
"CCCCCCCCCCCCCCCCCCCCCCCCCCCCC%%:%:%CCCCCCCCCCCCCCCCCCCCCCCCCCCCC",
"CCCCCCCCCCCCCCCCCCCCCCCCCCCCCC#%:%CCCCCCCCCCCCCCCCCCCCCCCCCCCCCC",
"CCCCCCCCCCCCCCCCCCCCCCCCCCCCCCCC:CCCCCCCCCCCCCCCCCCCCCCCCCCCCCCC"
};
