/* XPM */
static char *bitcoin128[] = {
/* columns rows colors chars-per-pixel */
"128 128 63 1 ",
"  c #394B65",
". c #3A4B65",
"X c #394B66",
"o c #384B67",
"O c #394B67",
"+ c #3A4B66",
"@ c #3A4B67",
"# c #384C65",
"$ c #394C65",
"% c #384D65",
"& c #3A4C65",
"* c #3A4D65",
"= c #384C66",
"- c #394C66",
"; c #384D66",
": c #394D66",
"> c #384C67",
", c #394C67",
"< c #394D67",
"1 c #3A4C66",
"2 c #3A4D66",
"3 c #3A4C67",
"4 c #374C68",
"5 c #354E69",
"6 c #364E6C",
"7 c #394C68",
"8 c #384D68",
"9 c #33506E",
"0 c #33536F",
"q c #2E5673",
"w c #2D5677",
"e c #0D719F",
"r c #0D71A1",
"t c #0D72A0",
"y c #0D72A1",
"u c #0B73A4",
"i c #0973A6",
"p c #0873A7",
"a c #0C71A4",
"s c #0D73A4",
"d c #0C73A5",
"f c #0974A5",
"g c #0B74A5",
"h c #0874A6",
"j c #0974A6",
"k c #0975A6",
"l c #0974A7",
"z c #0875A7",
"x c #0975A7",
"c c #0A74A6",
"v c #0A75A6",
"b c #0A74A7",
"n c #0A75A7",
"m c #0976A6",
"M c #0876A7",
"N c #0976A7",
"B c #0A76A6",
"V c #0A76A7",
"C c #0974A8",
"Z c #0875A8",
"A c #0975A8",
"S c #0976A8",
"D c None",
/* pixels */
"DDDDDDDDDDDDDDDDDDDDDDDDDDDDDDDDDDDDDDDDDDDDDDDDDDDDDDDDDDDDDDDDDDDDDDDDDDDDDDDDDDDDDDDDDDDDDDDDDDDDDDDDDDDDDDDDDDDDDDDDDDDDDDDD",
"DDDDDDDDDDDDDDDDDDDDDDDDDDDDDDDDDDDDDDDDDDDDDDDDDDDDDDDDDDDDDD----DDDDDDDDDDDDDDDDDDDDDDDDDDDDDDDDDDDDDDDDDDDDDDDDDDDDDDDDDDDDDD",
"DDDDDDDDDDDDDDDDDDDDDDDDDDDDDDDDDDDDDDDDDDDDDDDDDDDDDDDDDDDDD------DDDDDDDDDDDDDDDDDDDDDDDDDDDDDDDDDDDDDDDDDDDDDDDDDDDDDDDDDDDDD",
"DDDDDDDDDDDDDDDDDDDDDDDDDDDDDDDDDDDDDDDDDDDDDDDDDDDDDDDDDDD----------DDDDDDDDDDDDDDDDDDDDDDDDDDDDDDDDDDDDDDDDDDDDDDDDDDDDDDDDDDD",
"DDDDDDDDDDDDDDDDDDDDDDDDDDDDDDDDDDDDDDDDDDDDDDDDDDDDDDDDDD2-----------DDDDDDDDDDDDDDDDDDDDDDDDDDDDDDDDDDDDDDDDDDDDDDDDDDDDDDDDDD",
"DDDDDDDDDDDDDDDDDDDDDDDDDDDDDDDDDDDDDDDDDDDDDDDDDDDDDDDDD--------------DDDDDDDDDDDDDDDDDDDDDDDDDDDDDDDDDDDDDDDDDDDDDDDDDDDDDDDDD",
"DDDDDDDDDDDDDDDDDDDDDDDDDDDDDDDDDDDDDDDDDDDDDDDDDDDDDDDD----------------DDDDDDDDDDDDDDDDDDDDDDDDDDDDDDDDDDDDDDDDDDDDDDDDDDDDDDDD",
"DDDDDDDDDDDDDDDDDDDDDDDDDDDDDDDDDDDDDDDDDDDDDDDDDDDDDDD------------------DDDDDDDDDDDDDDDDDDDDDDDDDDDDDDDDDDDDDDDDDDDDDDDDDDDDDDD",
"DDDDDDDDDDDDDDDDDDDDDDDDDDDDDDDDDDDDDDDDDDDDDDDDDDDDDD--------------------DDDDDDDDDDDDDDDDDDDDDDDDDDDDDDDDDDDDDDDDDDDDDDDDDDDDDD",
"DDDDDDDDDDDDDDDDDDDDDDDDDDDDDDDDDDDDDDDDDDDDDDDDDDDDD----------DD----------DDDDDDDDDDDDDDDDDDDDDDDDDDDDDDDDDDDDDDDDDDDDDDDDDDDDD",
"DDDDDDDDDDDDDDDDDDDDDDDDDDDDDDDDDDDDDDDDDDDDDDDDDDDD----------DDDD----------DDDDDDDDDDDDDDDDDDDDDDDDDDDDDDDDDDDDDDDDDDDDDDDDDDDD",
"DDDDDDDDDDDDDDDDDDDDDDDDDDDDDDDDDDDDDDDDDDDDDDDDDDD----------DDDDDDD---------DDDDDDDDDDDDDDDDDDDDDDDDDDDDDDDDDDDDDDDDDDDDDDDDDDD",
"DDDDDDDDDDDDDDDDDDDDDDDDDDDDDDDDDDDDDDDDDDDDDDDDDD----------DDDDDDDDD---------DDDDDDDDDDDDDDDDDDDDDDDDDDDDDDDDDDDDDDDDDDDDDDDDDD",
"DDDDDDDDDDDDDDDDDDDDDDDDDDDDDDDDDDDDDDDDDDDDDDDDDD---------DDDDDDDDDDD--------2DDDDDDDDDDDDDDDDDDDDDDDDDDDDDDDDDDDDDDDDDDDDDDDDD",
"DDDDDDDDDDDDDDDDDDDDDDDDDDDDDDDDDDDDDDDDDDDDDDDDD--------7DDDDDDDDDDDD---------DDDDDDDDDDDDDDDDDDDDDDDDDDDDDDDDDDDDDDDDDDDDDDDDD",
"DDDDDDDDDDDDDDDDDDDDDDDDDDDDDDDDDDDDDDDDDDDDDDDD7--------DDDDDDDDDDDDDD---------DDDDDDDDDDDDDDDDDDDDDDDDDDDDDDDDDDDDDDDDDDDDDDDD",
"DDDDDDDDDDDDDDDDDDDDDDDDDDDDDDDDDDDDDDDDDDDDDDDD--------DDDDDDDDDDDDDDDD--------DDDDDDDDDDDDDDDDDDDDDDDDDDDDDDDDDDDDDDDDDDDDDDDD",
"DDDDDDDDDDDDDDDDDDDDDDDDDDDDDDDDDDDDDDDDDDDDDDD--------DDDDDDDDDDDDDDDDDDD-------DDDDDDDDDDDDDDDDDDDDDDDDDDDDDDDDDDDDDDDDDDDDDDD",
"DDDDDDDDDDDDDDDDDDDDDDDDDDDDDDDDDDDDDDDDDDDDDDD--------DxxxxxxxxSxxxxxxxDDDDDD----DDDDDDDDDDDDDDDDDDDDDDDDDDDDDDDDDDDDDDDDDDDDDD",
"DDDDDDDDDDDDDDDDDDDDDDDDDDDDDDDDDDDDDDDDDDDDDD--------DxxxxxxxxxxxxxxxxxxxxxVDDDD-DDDDDDDDDDDDDDDDDDDDDDDDDDDDDDDDDDDDDDDDDDDDDD",
"DDDDDDDDDDDDDDDDDDDDDDDDDDDDDDDDDDDDDDDDDDDDDD-------DxxxxxxxxxxxxxxxxxxxxxxxxxxDDDDDDDDDDDDDDDDDDDDDDDDDDDDDDDDDDDDDDDDDDDDDDDD",
"DDDDDDDDDDDDDDDDDDDDDDDDDDDDDDDDDDDDDDDDDDDDD--------xxxxxxxxxxxxxxxxxxxxxxxxxxxxxDDDDDDDDDDDDDDDDDDDDDDDDDDDDDDDDDDDDDDDDDDDDDD",
"DDDDDDDDDDDDDDDDDDDDDDDDDDDDDDDDDDDDDDDDDDDDD-------DxxxxxxxxxxxxxxxxxxxxxxxxxxxxxxxDDDDDDDDDDDDDDDDDDDDDDDDDDDDDDDDDDDDDDDDDDDD",
"DDDDDDDDDDDDDDDDDDDDDDDDDDDDDDDDDDDDDDDDDDxx.-------xxxxxxxxxxxxxxxxxxxxxxxxxxxxxxxxxxDDDDDDDDDDDDDDDDDDDDDDDDDDDDDDDDDDDDDDDDDD",
"DDDDDDDDDDDDDDDDDDDDDDDDDDDDDDDDDDDDDDDDxxxe-------DxxxxSxxxxxxxxxxxxxxxxxxxxxxxxxxxxxxxDDDDDDDDDDDDDDDDDDDDDDDDDDDDDDDDDDDDDDDD",
"DDDDDDDDDDDDDDDDDDDDDDDDDDDDDDDDDDDDDDxxxxxq-------DxxxxDDDDDDDDDDDDDDDDBxxxxxxxxxxxxxxxxxDDDDDDDDDDDDDDDDDDDDDDDDDDDDDDDDDDDDDD",
"DDDDDDDDDDDDDDDDDDDDDDDDDDDDDDDDDDDDDxxxxxx--------SDDDDDDDDDDDDDDDDDDDDDDDDxxxxxxxxxxxxxxSDDDDDDDDDDDDDDDDDDDDDDDDDDDDDDDDDDDDD",
"DDDDDDDDDDDDDDDDDDDDDDDDDDDDDDDDDDDxxxxxxxy-------DDDDDDDDDDDDDDDDDDDDDDDDDDDDxxxxxxxxxxxxxxDDDDDDDDDDDDDDDDDDDDDDDDDDDDDDDDDDDD",
"DDDDDDDDDDDDDDDDDDDDDDDDDDDDDDDDDDxxxxxxxxD-------DDDDDDDDDDDDDDDDDDDDDDDDDDDDDDDxxxxxxxxxxxxSDDDDDDDDDDDDDDDDDDDDDDDDDDDDDDDDDD",
"DDDDDDDDDDDDDDDDDDDDDDDDDDDDDDDDDxxxxxxxxx--------DDDDDDDDDDDDDDDDDDDDDDDDDDDDDDDDDxxxxxxxxxxxSDDDDDDDDDDDDDDDDDDDDDDDDDDDDDDDDD",
"DDDDDDDDDDDDDDDDDDDDDDDDDDDDDDDDxxxxxxxxxS-------DDDDDDDDDDDDDDDDDDDDDDDDDDDDDDDDDDDxxxxxxxxxxxxDDDDDDDDDDDDDDDDDDDDDDDDDDDDDDDD",
"DDDDDDDDDDDDDDDDDDDDDDDDDDDDDDDxxxxxxxxxxa-------DDDDDDDDDDDDDDDDDDDDDDDDDDDDDDDDDDDDDxxxxxxxxxxxDDDDDDDDDDDDDDDDDDDDDDDDDDDDDDD",
"DDDDDDDDDDDDDDDDDDDDDDDDDDDDDDxxxxxxxxxxDD-------DDDDDDDDDDDDDDDDDDDDDDDDDDDDDDDDDDDDDDxxxxxxxxxxxDDDDDDDDDDDDDDDDDDDDDDDDDDDDDD",
"DDDDDDDDDDDDDDDDDDDDDDDDDDDDDnxxxxxxxxxDDD-------DDDDDDDDDDDDDDDDDDDDDDDDDDDDDDDDDDDDDDDDxxxxxxxxxxDDDDDDDDDDDDDDDDDDDDDDDDDDDDD",
"DDDDDDDDDDDDDDDDDDDDDDDDDDDDxxxxxxxxxSDDD-------DDDDDDDDDDDDDDDDDDDDDDDDDDDDDDDDDDDDDDDDDDxxxxxxxxxpDDDDDDDDDDDDDDDDDDDDDDDDDDDD",
"DDDDDDDDDDDDDDDDDDDDDDDDDDDxxxxxxxxxxDDDD-------DDDDDDDDDDDDDDDDDDDDDDDDDDDDDDDDDDDDDDDDDDDxxxxxxxxxDDDDDDDDDDDDDDDDDDDDDDDDDDDD",
"DDDDDDDDDDDDDDDDDDDDDDDDDDDxxxxxxxxxDDDDD-------DDDDDDDDDDDDDDDDDDDDDDDDDDDDDDDDDDDDDDDDDDDDxxxxxxxxxDDDDDDDDDDDDDDDDDDDDDDDDDDD",
"DDDDDDDDDDDDDDDDDDDDDDDDDDSxxxxxxxxDDDDDD-------DDDDDDDDDDDDDDDDDDDDDDDDDDDDDDDDDDDDDDDDDDDDDxxxxxxxxxDDDDDDDDDDDDDDDDDDDDDDDDDD",
"DDDDDDDDDDDDDDDDDDDDDDDDDnxxxxxxxxDDDDDDD-------DDDDDDDDDDDDDDDDDDDDDDDDDDDDDDDDDDDDDDDDDDDDDDxxxxxxxxnDDDDDDDDDDDDDDDDDDDDDDDDD",
"DDDDDDDDDDDDDDDDDDDDDDDDDxxxxxxxxDDDDDDDD@------DDDDDDDDDDDDDDDDDDDDDDDDDDDDDDDDDDDDDDDDDDDDDDDxxxxxxxxDDDDDDDDDDDDDDDDDDDDDDDDD",
"DDDDDDDDDDDDDDDDDDDDDDDDxxxxxxxxDDDDDDDDDDDDDDDDDDDDDDDDDDDDDDDDDDDDDDDDDDDDDDDDDDDDDDDDDDDDDDDSxxxxxxxxDDDDDDDDDDDDDDDDDDDDDDDD",
"DDDDDDDDDDDDDDDDDDDDDDDSxxxxxxxxDDDDDDDDDDDDDDDDDDDDDDDDDDDDDDDDDDDDDDDDDDDDDDDDDDDDDDDD-------7DDnxxxxxDDDDDDDDDDDDDDDDDDDDDDDD",
"DDDDDDDDDDDDDDDDDDDDDDDxxxxxxxxDDDDDDDDDDDDDDDDDDDDDDDDDDDDDDDDDDDDDDDDDDDD----DDDDDDDDD------------DDnxxDDDDDDDDDDDDDDDDDDDDDDD",
"DDDDDDDDDDDDDDDDDDDDDDSxxxxxxxDDDDDDDDDDDDDDDDDDDDDDDDDDDDDDDDDDDDDDDDDD-------DDDDDDDDD---------------DDDDDDDDDDDDDDDDDDDDDDDDD",
"DDDDDDDDDDDDDDDDDDDDDDxxxxxxxxDDDDDDDDDDDDDDDDDDDDDDDDDDDDDDDDDDDDDDDD---------DDDDDDDDD-----------------3DDDDDDDDDDDDDDDDDDDDDD",
"DDDDDDDDDDDDDDDDDDDDDxxxxxxxxDDDDDDDDDDDDDDDDDDDDDDDDDDDDDDDDDDDDDD------------DDDDDDDDD--------------------DDDDDDDDDDDDDDDDDDDD",
"DDDDDDDDDDDDDDDDDD--DxxxxxxxxDDDDDDDDDDDDDDDDDDDDDDDDDDDDDDDDDDDD--------------DDDDDDDDD----------------------DDDDDDDDDDDDDDDDDD",
"DDDDDDDDDDDDDDDD---DDxxxxxxxDDDDDDDDDDDDDDDDDDDDDDDDDDDDDDDDDDDD---------------DDDDDDDDD-----------------------3DDDDDDDDDDDDDDDD",
"DDDDDDDDDDDDDDD----DxxxxxxxSDDDDDDDDDDDDDDDDDDDDDDDDDDDDDDDDDD-----------------DDDDDDDDDDDDDDDD------------------DDDDDDDDDDDDDDD",
"DDDDDDDDDDDDD-----.DxxxxxxxDDDDDDDDDDDDDDD------.DDDDDDDDDDDD---------------DDDDDDDDDDDDDDDDDDDDDDD----------------DDDDDDDDDDDDD",
"DDDDDDDDDDDD------DDxxxxxxxDDDDDDDDDDDDDDD-------DDDDDDDDDD--------------DDDDDDDDDDDDDDDDDDDDDDDDDDDDD--------------DDDDDDDDDDDD",
"DDDDDDDDDDD-------DSxxxxxxxDDDDDDDDDDDDDDD--------DDDDDDDD-------------DDDDDDDDDDDDDDDDDDDDDDDDDDDDDDxxD6------------DDDDDDDDDDD",
"DDDDDDDDDD-------.DxxxxxxxDDDDDDDDDDDDDDDDD-------DDDDDDD------------DDDDDDDDDDDDDDDDDDDDDDDDDDDDDDDDDxxxy5-----------DDDDDDDDDD",
"DDDDDDDDD--------.DxxxxxxxDDDDDDDDDDDDDDDDD-------DDDDDD-----------DDDD-DDDDDDDDDDDDDDDDDDDDDDDDDDDDDDxxxxxD7----------3DDDDDDDD",
"DDDDDDDD---------DDxxxxxxxDDDDDDDDDDDDDDDDD.-------DDDD-----------DDD----DDDDDDDDDDDDDDDDDDDDDDDDDDDDDxxxxxxxD-----------DDDDDDD",
"DDDDDDD----------DxxxxxxxDDDDDDDDDDDDDDDDDDD-------DDD----------DDD-------DDDDDDDDDDDDDDDDDDDDDDDDDDDDxxxxxxxDD----------DDDDDDD",
"DDDDDD----------DDSSxxxxxDDDDDDDDDDDDDDDDDDD-------DD.---------DDD---------DDDDDDDDDDDDDDDDDDDDDDDDDDDDxxxxxxxDD----------DDDDDD",
"DDDDD---------DDDDxpxxxxxDDDDDDDDDDDDDDDDDDD.-------DD--------DDDD----------DDDDDDDDDDDDDDDDDDDDDDDDDDDxxxxxxxDDDD---------DDDDD",
"DDDD---------DDDDDxxxxxxxDDDDDDDDDDDDDDDDDDDD-------DD#------DDDDDD----------DDDDDDDDDDDDDDDDDDDDDDDDDDxxxxxxxDDDDD---------DDDD",
"DDD---------DDDDDDxxxxxxxDDDDDDDDDDDDDDDDDDDD--------DD-----DDDDDDDD----------DDDDDDDDDDDDDDDDDDDDDDDDDxxxxxxxDDDDDD---------DDD",
"DD---------DDDDDDDxxxxxxxDDDDDDDDDDDDDDDDDDDDD-------@D----DDDDDDDDDD---------DDDDDDDDDDDDDDDDDDDDDDDDDxxxxxxxDDDDDDD---------DD",
"DD---------DDDDDDDxxxxxxxDDDDDDDDDDDDDDDDDDDDD--------DD--DDDDDDDDDDDD---------DDDDDDDDDDDDDDDDDDDDDDDDxxxxxxSDDDDDDD---------DD",
"D---------DDDDDDDDxxxxxxDDDDDDDDDDDDDDDDDDDDDDD--------DDDDDDDDDDDDDDDD---------DDDDDDDDDDDDDDDDDDDDDDDBxxxxxxDDDDDDDD---------D",
"D--------DDDDDDDDDxxxxxxDDDDDDDDDDDDDDDDDDDDDDD7-------7DDDDDDDDDDDDDDDD--------DDDDDDDDDDDDDDDDDDDDDDDSxxxxxxDDDDDDDDD--------D",
"D--------DDDDDDDDDxxxxxxDDDDDDDDDDDDDDDDDDDDDDDD--------DDDDDDDDDDDDDDDDD-------2DDDDDDDDDDDDDDDDDDDDDDBxxxxxxDDDDDDDDD--------D",
"D---------DDDDDDDDxxxxxxDDDDDDDDDDDDDDDDDDDDDDDDD--------DDDDDDDDDDDDDDDD---------DDDDDDDDDDDDDDDDDDDDDSxxxxxxDDDDDDDD---------D",
"DD---------DDDDDDDxxxxxxxDDDDDDDDDDDDDDDDDDDDDDDD7-------.DDDDDDDDDDDD--DD--------DDDDDDDDDDDDDDDDDDDDDxxxxxxxDDDDDDD---------DD",
"DDD---------DDDDDDxxxxxxxDDDDDDDDDDDDDDDDDDDDDDDDD---------DDDDDDDDDD----DD--------DDDDDDDDDDDDDDDDDDDDSxxxxxxDDDDDD7--------DDD",
"DDD----------DDDDDxxxxxxxDDDDDDDDDDDDDDDDDDDDDDDDDD---------DDDDDDDD-----DD--------DDDDDDDDDDDDDDDDDDDDxxxxxxxDDDDD----------DDD",
"DDDD----------DDDDxxxxxxxDDDDDDDDDDDDDDDDDDDDDDDDDD@---------DDDDDD-------DD-------DDDDDDDDDDDDDDDDDDDDxxxxxxxDDDD.---------DDDD",
"DDDDD---------3DDDxxxxxxxDDDDDDDDDDDDDDDDDDDDDDDDDDD----------DDDD--------DD--------DDDDDDDDDDDDDDDDDDDxxxxxxxDDD.---------DDDDD",
"DDDDDD----------DDxxxxxxxDDDDDDDDDDDDDDDDDDDDDDDDDDDD---------DDD---------2DD-------DDDDDDDDDDDDDDDDDDDxxxxxxxDD.---------DDDDDD",
"DDDDDDD----------DSxxxxxxDDDDDDDDDDDDDDDDDDDDDDDDDDDDD-------DD-----------DDD-------2DDDDDDDDDDDDDDDDDSxxxxxxxD----------DDDDDDD",
"DDDDDDDD----------7DxxxxxxDDDDDDDDDDDDDDDDDDDDDDDDDDDDD----DDD-----------DDDDD-------DDDDDDDDDDDDDDDDDpxxxxxxDD---------DDDDDDDD",
"DDDDDDDDD-----------9nxxxxDDDDDDDDDDDDDDDDDDDDDDDDDDDDDD-DDD@-----------DDDDDD-------DDDDDDDDDDDDDDDDDxxxxxxxD---------DDDDDDDDD",
"DDDDDDDDDD-----------.DpxSDDDDDDDDDDDDDDDDDDDDDDDDDDDDDDDD-------------DDDDDDD7-------DDDDDDDDDDDDDDDDxxxxxxxD--------DDDDDDDDDD",
"DDDDDDDDDDD-------------DDDDDDDDDDDDDDDDDDDDDDDDDDDDDDDD3-------------DDDDDDDDD-------DDDDDDDDDDDDDDDSxxxxxxxD------7DDDDDDDDDDD",
"DDDDDDDDDDDD---------------DDDDDDDDDDDDDDDDDDDDDDDDDDD--------------DDDDDDDDDDD-------DDDDDDDDDDDDDDDxxxxxxxDD------DDDDDDDDDDDD",
"DDDDDDDDDDDDDD----------------DDDDDDDDDDDDDDDDDDDDD----------------DDDDDDDDDDDD-------DDDDDDDDDDDDDDDxxxxxxxD-----DDDDDDDDDDDDDD",
"DDDDDDDDDDDDDDD--------------------DDDDDDDDDDDDDD----------------DDDDDDDDDDDDDDDDDDDDDDDDDDDDDDDDDDDxxxxxxxxD----DDDDDDDDDDDDDDD",
"DDDDDDDDDDDDDDDDD-----------------------DDDDDDDDD---------------DDDDDDDDDDDDDDDDDDDDDDDDDDDDDDDDDDDDxxxxxxSDD--DDDDDDDDDDDDDDDDD",
"DDDDDDDDDDDDDDDDDDD---------------------DDDDDDDDD-------------DDDDDDDDDDDDDDDDDDDDDDDDDDDDDDDDDDDDDxxxxxxxxD-DDDDDDDDDDDDDDDDDDD",
"DDDDDDDDDDDDDDDDDDDDD-------------------DDDDDDDDD-----------DDDDDDDDDDDDDDDDDDDDDDDDDDDDDDDDDDDDDDDxxxxxxxDDDDDDDDDDDDDDDDDDDDDD",
"DDDDDDDDDDDDDDDDDDDDDDD-----------------DDDDDDDDD---------DDDDDDDDDDDDDDDDDDDDDDDDDDDDDDDDDDDDDDDDxxxxxxxxDDDDDDDDDDDDDDDDDDDDDD",
"DDDDDDDDDDDDDDDDDDDDDDnxyw3-------------DDDDDDDDD------DDDDDDDDDDDDDDDDDDDDDDDDDDDDDDDDDDDDDDDDDDDxxxxxxxxDDDDDDDDDDDDDDDDDDDDDD",
"DDDDDDDDDDDDDDDDDDDDDDDxxSnnD-----------DDDDDDDDD--3DDDDDDDDDDDDDDDDDDDDDDDDDDDDDDDDDDDDDDDDDDDDDxxxxxxxxDDDDDDDDDDDDDDDDDDDDDDD",
"DDDDDDDDDDDDDDDDDDDDDDDxxxxxxxxDDD------DDDDDDDDDDDDDDDDDDDDDDDDDDDDDDDDDDDDDDDDDDDDDDDDDDDDDDDDxxxxxxxxxDDDDDDDDDDDDDDDDDDDDDDD",
"DDDDDDDDDDDDDDDDDDDDDDDDxxxxxxxxDDDDDDDDDDDDDDDDDDDDDDDDDDDDDDDDDDDDDDDDDDDDDDDDDDDDDDDDDDDDDDDDxxxxxxxxDDDDDDDDDDDDDDDDDDDDDDDD",
"DDDDDDDDDDDDDDDDDDDDDDDDxxxxxxxxxDDDDDDDDDDDDDDDDDDDDDDDDDDDDDDDDDDDDDDDDDDDDDDD-----32DDDDDDDDxxxxxxxxDDDDDDDDDDDDDDDDDDDDDDDDD",
"DDDDDDDDDDDDDDDDDDDDDDDDDxxxxxxxxxDDDDDDDDDDDDDDDDDDDDDDDDDDDDDDDDDDDDDDDDDDDDDD-------DDDDDDDxxxxxxxxxDDDDDDDDDDDDDDDDDDDDDDDDD",
"DDDDDDDDDDDDDDDDDDDDDDDDDDxxxxxxxxxDDDDDDDDDDDDDDDDDDDDDDDDDDDDDDDDDDDDDDDDDDDDD-------DDDDDDxxxxxxxxxDDDDDDDDDDDDDDDDDDDDDDDDDD",
"DDDDDDDDDDDDDDDDDDDDDDDDDDnxxxxxxxxxDDDDDDDDDDDDDDDDDDDDDDDDDDDDDDDDDDDDDDDDDDDD-------DDDDDxxxxxxxxxDDDDDDDDDDDDDDDDDDDDDDDDDDD",
"DDDDDDDDDDDDDDDDDDDDDDDDDDDxxxxxxxxxBDDDDDDDDDDDDDDDDDDDDDDDDDDDDDDDDDDDDDDDDDDD-------DDDDxxxxxxxxxxDDDDDDDDDDDDDDDDDDDDDDDDDDD",
"DDDDDDDDDDDDDDDDDDDDDDDDDDDDxxxxxxxxxxDDDDDDDDDDDDDDDDDDDDDDDDDDDDDDDDDDDDDDDDDD-------DDDxxxxxxxxxxDDDDDDDDDDDDDDDDDDDDDDDDDDDD",
"DDDDDDDDDDDDDDDDDDDDDDDDDDDDDnxxxxxxxxxDDDDDDDDDDDDDDDDDDDDDDDDDDDDDDDDDDDDDDDDD------3DDxxxxxxxxxxDDDDDDDDDDDDDDDDDDDDDDDDDDDDD",
"DDDDDDDDDDDDDDDDDDDDDDDDDDDDDDxxxxxxxxxxDDDDDDDDDDDDDDDDDDDDDDDDDDDDDDDDDDDDDDD-------DDBxxxxxxxxxDDDDDDDDDDDDDDDDDDDDDDDDDDDDDD",
"DDDDDDDDDDDDDDDDDDDDDDDDDDDDDDDSxxxxxxxxxDDDDDDDDDDDDDDDDDDDDDDDDDDDDDDDDDDDDDD-------DxxxxxxxxxxDDDDDDDDDDDDDDDDDDDDDDDDDDDDDDD",
"DDDDDDDDDDDDDDDDDDDDDDDDDDDDDDDDxxxxxxxxxxxDDDDDDDDDDDDDDDDDDDDDDDDDDDDDDDDDDDD-------DxxxxxxxxxDDDDDDDDDDDDDDDDDDDDDDDDDDDDDDDD",
"DDDDDDDDDDDDDDDDDDDDDDDDDDDDDDDDDxxxxxxxxxxxxDDDDDDDDDDDDDDDDDDDDDDDDDDDDDDDDDD-------SxxxxxxxxDDDDDDDDDDDDDDDDDDDDDDDDDDDDDDDDD",
"DDDDDDDDDDDDDDDDDDDDDDDDDDDDDDDDDDxxxxxxxxxxxxxDDDDDDDDDDDDDDDDDDDDDDDDDDDDDDD-------7xxxxxxxxDDDDDDDDDDDDDDDDDDDDDDDDDDDDDDDDDD",
"DDDDDDDDDDDDDDDDDDDDDDDDDDDDDDDDDDDxxxxxxxxxxxxxxDDDDDDDDDDDDDDDDDDDDDDDDDDDDD-------DSxxxxxSDDDDDDDDDDDDDDDDDDDDDDDDDDDDDDDDDDD",
"DDDDDDDDDDDDDDDDDDDDDDDDDDDDDDDDDDDDxxxxxxxxxxxxxxVDDDDDDDDDDDDDDDDDDDDDDDDDSD-------axxxxnDDDDDDDDDDDDDDDDDDDDDDDDDDDDDDDDDDDDD",
"DDDDDDDDDDDDDDDDDDDDDDDDDDDDDDDDDDDDDDxxxxxxxxxxxxxxxxxDDDDDDDDDDDDDDDDDDxxxx--------xxxxxDDDDDDDDDDDDDDDDDDDDDDDDDDDDDDDDDDDDDD",
"DDDDDDDDDDDDDDDDDDDDDDDDDDDDDDDDDDDDDDDSxxxxxxxxxxxxxxxxxxSxxxDDDDSBxxxxxxxxD-------DxxxDDDDDDDDDDDDDDDDDDDDDDDDDDDDDDDDDDDDDDDD",
"DDDDDDDDDDDDDDDDDDDDDDDDDDDDDDDDDDDDDDDDDxxxxxxxxxxxxxxxxxxxxxxxxxxxxxxxxxxx--------nxxDDDDDDDDDDDDDDDDDDDDDDDDDDDDDDDDDDDDDDDDD",
"DDDDDDDDDDDDDDDDDDDDDDDDDDDDDDDDDDDDDDDDDDDxxxxxxxxxxxxxxxxxxxxxxxxxxxxxxxxD--------xDDDDDDDDDDDDDDDDDDDDDDDDDDDDDDDDDDDDDDDDDDD",
"DDDDDDDDDDDDDDDDDDDDDDDDDDDDDDDDDDDDDDDDDDDDDxSxxxxxxxxxxxxxxxxxxxxxxxxxxxS.-------DDDDDDDDDDDDDDDDDDDDDDDDDDDDDDDDDDDDDDDDDDDDD",
"DDDDDDDDDDDDDDDDDDDDDDDDDDDDDDDDDDDDDDDDDDDDDDDBxxxxxxxxxxxxxxxxxxxxxxxxxSD--------DDDDDDDDDDDDDDDDDDDDDDDDDDDDDDDDDDDDDDDDDDDDD",
"DDDDDDDDDDDDDDDDDDDDDDDDDDDDDDDDDDDDDDDDDDDDDD-DDDxxxxxxxxxxxxxxxxxxxxxxxp--------DDDDDDDDDDDDDDDDDDDDDDDDDDDDDDDDDDDDDDDDDDDDDD",
"DDDDDDDDDDDDDDDDDDDDDDDDDDDDDDDDDDDDDDDDDDDDDDD---DDDDxxxxxxxxxxxxxxxxxxx9-------3DDDDDDDDDDDDDDDDDDDDDDDDDDDDDDDDDDDDDDDDDDDDDD",
"DDDDDDDDDDDDDDDDDDDDDDDDDDDDDDDDDDDDDDDDDDDDDDD-------DDDDDDDDBSxDDDDDDDD--------DDDDDDDDDDDDDDDDDDDDDDDDDDDDDDDDDDDDDDDDDDDDDDD",
"DDDDDDDDDDDDDDDDDDDDDDDDDDDDDDDDDDDDDDDDDDDDDDDD--------DDDDDDDDDDDDDDDD--------+DDDDDDDDDDDDDDDDDDDDDDDDDDDDDDDDDDDDDDDDDDDDDDD",
"DDDDDDDDDDDDDDDDDDDDDDDDDDDDDDDDDDDDDDDDDDDDDDDD---------DDDDDDDDDDDDDD---------DDDDDDDDDDDDDDDDDDDDDDDDDDDDDDDDDDDDDDDDDDDDDDDD",
"DDDDDDDDDDDDDDDDDDDDDDDDDDDDDDDDDDDDDDDDDDDDDDDDD---------DDDDDDDDDDDD---------DDDDDDDDDDDDDDDDDDDDDDDDDDDDDDDDDDDDDDDDDDDDDDDDD",
"DDDDDDDDDDDDDDDDDDDDDDDDDDDDDDDDDDDDDDDDDDDDDDDDDD---------DDDDDDDDDDD--------.DDDDDDDDDDDDDDDDDDDDDDDDDDDDDDDDDDDDDDDDDDDDDDDDD",
"DDDDDDDDDDDDDDDDDDDDDDDDDDDDDDDDDDDDDDDDDDDDDDDDDD----------DDDDDDDDD--------7DDDDDDDDDDDDDDDDDDDDDDDDDDDDDDDDDDDDDDDDDDDDDDDDDD",
"DDDDDDDDDDDDDDDDDDDDDDDDDDDDDDDDDDDDDDDDDDDDDDDDDDD----------DDDDDDD---------DDDDDDDDDDDDDDDDDDDDDDDDDDDDDDDDDDDDDDDDDDDDDDDDDDD",
"DDDDDDDDDDDDDDDDDDDDDDDDDDDDDDDDDDDDDDDDDDDDDDDDDDDD----------DDDD----------DDDDDDDDDDDDDDDDDDDDDDDDDDDDDDDDDDDDDDDDDDDDDDDDDDDD",
"DDDDDDDDDDDDDDDDDDDDDDDDDDDDDDDDDDDDDDDDDDDDDDDDDDDDD----------DD----------DDDDDDDDDDDDDDDDDDDDDDDDDDDDDDDDDDDDDDDDDDDDDDDDDDDDD",
"DDDDDDDDDDDDDDDDDDDDDDDDDDDDDDDDDDDDDDDDDDDDDDDDDDDDDD--------------------DDDDDDDDDDDDDDDDDDDDDDDDDDDDDDDDDDDDDDDDDDDDDDDDDDDDDD",
"DDDDDDDDDDDDDDDDDDDDDDDDDDDDDDDDDDDDDDDDDDDDDDDDDDDDDDD------------------DDDDDDDDDDDDDDDDDDDDDDDDDDDDDDDDDDDDDDDDDDDDDDDDDDDDDDD",
"DDDDDDDDDDDDDDDDDDDDDDDDDDDDDDDDDDDDDDDDDDDDDDDDDDDDDDDD----------------DDDDDDDDDDDDDDDDDDDDDDDDDDDDDDDDDDDDDDDDDDDDDDDDDDDDDDDD",
"DDDDDDDDDDDDDDDDDDDDDDDDDDDDDDDDDDDDDDDDDDDDDDDDDDDDDDDDD--------------DDDDDDDDDDDDDDDDDDDDDDDDDDDDDDDDDDDDDDDDDDDDDDDDDDDDDDDDD",
"DDDDDDDDDDDDDDDDDDDDDDDDDDDDDDDDDDDDDDDDDDDDDDDDDDDDDDDDDD------------DDDDDDDDDDDDDDDDDDDDDDDDDDDDDDDDDDDDDDDDDDDDDDDDDDDDDDDDDD",
"DDDDDDDDDDDDDDDDDDDDDDDDDDDDDDDDDDDDDDDDDDDDDDDDDDDDDDDDDDD----------DDDDDDDDDDDDDDDDDDDDDDDDDDDDDDDDDDDDDDDDDDDDDDDDDDDDDDDDDDD",
"DDDDDDDDDDDDDDDDDDDDDDDDDDDDDDDDDDDDDDDDDDDDDDDDDDDDDDDDDDDDD------DDDDDDDDDDDDDDDDDDDDDDDDDDDDDDDDDDDDDDDDDDDDDDDDDDDDDDDDDDDDD",
"DDDDDDDDDDDDDDDDDDDDDDDDDDDDDDDDDDDDDDDDDDDDDDDDDDDDDDDDDDDDDD----DDDDDDDDDDDDDDDDDDDDDDDDDDDDDDDDDDDDDDDDDDDDDDDDDDDDDDDDDDDDDD",
"DDDDDDDDDDDDDDDDDDDDDDDDDDDDDDDDDDDDDDDDDDDDDDDDDDDDDDDDDDDDDDDDDDDDDDDDDDDDDDDDDDDDDDDDDDDDDDDDDDDDDDDDDDDDDDDDDDDDDDDDDDDDDDDD"
};
