/* XPM */
static char *bitcoin16[] = {
/* columns rows colors chars-per-pixel */
"16 16 38 1 ",
"  c #394B65",
". c #394B66",
"X c #384B67",
"o c #394C65",
"O c #3A4C65",
"+ c #384C66",
"@ c #394C66",
"# c #394D66",
"$ c #384C67",
"% c #394C67",
"& c #3A4C66",
"* c #3A4C67",
"= c #384C68",
"- c #394C68",
"; c #2D5676",
": c #2C5877",
"> c #28587A",
", c #2A597A",
"< c #2C5878",
"1 c #285A7E",
"2 c #265C80",
"3 c #265D81",
"4 c #0E6F9E",
"5 c #0F6F9E",
"6 c #106F9D",
"7 c #106F9E",
"8 c #0975A6",
"9 c #0974A7",
"0 c #0975A7",
"q c #0A75A6",
"w c #0A74A7",
"e c #0A75A7",
"r c #0876A7",
"t c #0976A7",
"y c #0974A8",
"u c #0875A8",
"i c #0975A8",
"p c None",
/* pixels */
"ppppppp@@ppppppp",
"pppppp@@@@pppppp",
"pppppp;007pppppp",
"pppp02pppp00pppp",
"ppp0i-pppppi0ppp",
"ppp0ppppp@p-,ppp",
"p@4pp.p-@pppp,@p",
"@@0ppp@pp@ppp0@@",
"@@ippp@pp@ppp0@@",
"p@:pppp@@p@pp6.p",
"ppp2@p@ppppp0ppp",
"ppp00ppppp@i0ppp",
"ppppe0pppp1ipppp",
"pppppp700<pppppp",
"pppppp@@@@pppppp",
"ppppppp@.ppppppp"
};
