/* XPM */
static char *bitcoin32[] = {
/* columns rows colors chars-per-pixel */
"32 32 59 1 ",
"  c #374C67",
". c #394B65",
"X c #3A4B65",
"o c #394B66",
"O c #394B67",
"+ c #394C65",
"@ c #3A4D65",
"# c #384C66",
"$ c #394C66",
"% c #394D66",
"& c #384C67",
"* c #394C67",
"= c #384D67",
"- c #3A4C66",
"; c #374E68",
": c #364E69",
"> c #344E6A",
", c #344F6A",
"< c #354F6A",
"1 c #354E6B",
"2 c #384C68",
"3 c #32526F",
"4 c #35516D",
"5 c #34516E",
"6 c #2F5373",
"7 c #2F5472",
"8 c #2F5574",
"9 c #335170",
"0 c #315370",
"q c #1F6089",
"w c #1E638A",
"e c #1C648C",
"r c #1D658C",
"t c #1C658E",
"y c #0F6F9F",
"u c #196792",
"i c #1A6892",
"p c #226187",
"a c #0E71A1",
"s c #0C72A2",
"d c #0C72A3",
"f c #0C73A3",
"g c #0B73A4",
"h c #0973A6",
"j c #0A74A4",
"k c #0B74A4",
"l c #0975A6",
"z c #0974A7",
"x c #0875A7",
"c c #0975A7",
"v c #0A74A6",
"b c #0A74A7",
"n c #0A75A7",
"m c #0976A6",
"M c #0976A7",
"N c #0A76A7",
"B c #0875A8",
"V c #0975A8",
"C c None",
/* pixels */
"CCCCCCCCCCCCCCC%oCCCCCCCCCCCCCCC",
"CCCCCCCCCCCCCCo%ooCCCCCCCCCCCCCC",
"CCCCCCCCCCCCC%%oo%%CCCCCCCCCCCCC",
"CCCCCCCCCCCC%%%CCC%%CCCCCCCCCCCC",
"CCCCCCCCCCCC%3CzzCw<CCCCCCCCCCCC",
"CCCCCCCCCCC%%fzzzzzNzCCCCCCCCCCC",
"CCCCCCCCCzfo5CCCCCzzzzzCCCCCCCCC",
"CCCCCCCCzzu%CCCCCCCCCzNzCCCCCCCC",
"CCCCCCCzNB4%CCCCCCCCCCzzNCCCCCCC",
"CCCCCCzNBCo%CCCCCCCCCCCzzzCCCCCC",
"CCCCCCNzCCCCCCCCCCCCCC%4ryCCCCCC",
"CCCCCNzCCCCCCCCCC%%%CC%%%%%CCCCC",
"CCC%5zNCCCC%CCCo%%oCCCCCC02%oCCC",
"CCo%tzCCCCCo%Co%o%CCCCCCCzz7%oCC",
"Co%CzzCCCCC%o%%CC%%CCCCCCCzCO%%C",
"%%oCzzCCCCCC%oCCCCo%CCCCCCzzCoo%",
"o%oCzzCCCCCCo%CCCC%oCCCCCCzNC%%%",
"Co%%zzCCCCCCCo%CC%o%%CCCCCzC%%%C",
"CC%%3aCCCCCCCCo%%%C%%CCCCzzpo%CC",
"CCC%%%4CCCCCC%%%%CCC%CCCCzz4%CCC",
"CCCCC%%%%oCC%%%CCCCCCCCCCzzCCCCC",
"CCCCCCziO%CCCCCCCCCCCCCCVzCCCCCC",
"CCCCCCzNzCCCCCCCCCCC%%CkzzCCCCCC",
"CCCCCCCzzzCCCCCCCCCCo<zzNCCCCCCC",
"CCCCCCCCzzzCCCCCCCCC%rNzCCCCCCCC",
"CCCCCCCCCzzzzCCCCCC3%azCCCCCCCCC",
"CCCCCCCCCCCVNzzzzzz%%CCCCCCCCCCC",
"CCCCCCCCCCCC0tzzzz7%CCCCCCCCCCCC",
"CCCCCCCCCCCC%o%CC%%%CCCCCCCCCCCC",
"CCCCCCCCCCCCC%o%%%%CCCCCCCCCCCCC",
"CCCCCCCCCCCCCC%o%oCCCCCCCCCCCCCC",
"CCCCCCCCCCCCCCC@oCCCCCCCCCCCCCCC"
};
